<svg width="14" height="7" viewBox="0 0 14 7" fill="none" xmlns="http://www.w3.org/2000/svg">
<path d="M14 3.5C14.0001 4.19221 13.8014 4.8689 13.4292 5.44448C13.057 6.02006 12.5279 6.46868 11.9088 6.73359C11.2898 6.9985 10.6086 7.0678 9.9514 6.93273C9.29421 6.79767 8.69056 6.4643 8.21679 5.97479L8.18913 5.94387L4.80943 2.0016C4.5237 1.71183 4.16148 1.51569 3.76824 1.43781C3.375 1.35993 2.96825 1.40376 2.59904 1.56382C2.22982 1.72388 1.9146 1.99302 1.69291 2.33748C1.47123 2.68194 1.35297 3.08636 1.35297 3.5C1.35297 3.91364 1.47123 4.31806 1.69291 4.66252C1.9146 5.00698 2.22982 5.27612 2.59904 5.43618C2.96825 5.59624 3.375 5.64007 3.76824 5.56219C4.16148 5.48431 4.5237 5.28817 4.80943 4.9984L4.98333 4.79543C5.04231 4.72649 5.11385 4.67023 5.19388 4.62986C5.27391 4.58949 5.36086 4.5658 5.44975 4.56014C5.53864 4.55448 5.62774 4.56696 5.71196 4.59688C5.79618 4.62679 5.87388 4.67354 5.94061 4.73448C6.00734 4.79541 6.0618 4.86932 6.10087 4.952C6.13995 5.03467 6.16289 5.12448 6.16837 5.21631C6.17384 5.30814 6.16176 5.40019 6.13281 5.4872C6.10385 5.5742 6.05859 5.65446 5.99961 5.7234L5.81046 5.94387L5.7828 5.97479C5.30901 6.46415 4.7054 6.7974 4.04828 6.93238C3.39117 7.06736 2.71006 6.99802 2.09109 6.73313C1.47212 6.46824 0.943085 6.01969 0.570876 5.4442C0.198666 4.86871 0 4.19213 0 3.5C0 2.80787 0.198666 2.13129 0.570876 1.5558C0.943085 0.980309 1.47212 0.531759 2.09109 0.266867C2.71006 0.00197485 3.39117 -0.0673631 4.04828 0.0676208C4.7054 0.202605 5.30901 0.535849 5.7828 1.02521L5.81046 1.05613L9.19017 4.9984C9.4759 5.28817 9.83811 5.48431 10.2314 5.56219C10.6246 5.64007 11.0313 5.59624 11.4006 5.43618C11.7698 5.27612 12.085 5.00698 12.3067 4.66252C12.5284 4.31806 12.6466 3.91364 12.6466 3.5C12.6466 3.08636 12.5284 2.68194 12.3067 2.33748C12.085 1.99302 11.7698 1.72388 11.4006 1.56382C11.0313 1.40376 10.6246 1.35993 10.2314 1.43781C9.83811 1.51569 9.4759 1.71183 9.19017 2.0016L9.01627 2.20457C8.95729 2.27351 8.88574 2.32977 8.80571 2.37014C8.72568 2.41051 8.63874 2.4342 8.54985 2.43986C8.46096 2.44552 8.37186 2.43304 8.28764 2.40312C8.20341 2.37321 8.12572 2.32645 8.05899 2.26552C7.99226 2.20459 7.9378 2.13068 7.89872 2.04801C7.85964 1.96533 7.83671 1.87552 7.83123 1.78369C7.82575 1.69186 7.83783 1.59981 7.86679 1.5128C7.89574 1.4258 7.94101 1.34554 7.99999 1.2766L8.18913 1.05613L8.21679 1.02521C8.69056 0.535705 9.29421 0.202335 9.9514 0.067268C10.6086 -0.0677988 11.2898 0.00150517 11.9088 0.266415C12.5279 0.531324 13.057 0.979939 13.4292 1.55552C13.8014 2.1311 14.0001 2.80779 14 3.5Z" fill="#040A22"/>
</svg>
